<svg width="77.891" height="32" xmlns="http://www.w3.org/2000/svg">
  <defs>
    <linearGradient x1="50%" y1="0%" x2="54.167%" y2="100%" id="prefix__a">
      <stop stop-color="#FFF" stop-opacity="0" offset="0%" />
      <stop stop-color="#FFF" stop-opacity=".12" offset="100%" />
    </linearGradient>
    <linearGradient x1="62.77%" y1="-25.539%" x2="62.77%" y2="100%" id="prefix__b">
      <stop stop-color="#FFF" stop-opacity=".8" offset="0%" />
      <stop stop-color="#FFF" stop-opacity=".5" offset="100%" />
    </linearGradient>
    <linearGradient x1="37.231%" y1="0%" x2="37.231%" y2="125.537%" id="prefix__c">
      <stop stop-color="#FFF" stop-opacity=".8" offset="0%" />
      <stop stop-color="#FFF" stop-opacity=".5" offset="100%" />
    </linearGradient>
    <linearGradient x1="50%" y1="0%" x2="50%" y2="100%" id="prefix__d">
      <stop stop-color="#FFF" stop-opacity=".8" offset="0%" />
      <stop stop-color="#FFF" stop-opacity=".5" offset="100%" />
    </linearGradient>
    <linearGradient x1="50%" y1="-2.174%" x2="50%" y2="102.174%" id="prefix__e">
      <stop stop-color="#FFF" stop-opacity=".12" offset="0%" />
      <stop stop-color="#FFF" stop-opacity="0" offset="100%" />
    </linearGradient>
  </defs>
  <g fill="none" fill-rule="evenodd">
    <g fill-rule="nonzero">
      <rect fill="#875BF7" width="32" height="32" rx="8" />
      <path fill="url(#prefix__a)" d="M0 0h32v32H0z" />
      <path
        d="M13.699 15.826a6.864 6.864 0 01-9.47-9.47L1.953 4.08c-2.899 3.925-2.57 9.484.984 13.038 3.555 3.555 9.114 3.883 13.038.985L13.7 15.826z"
        fill="url(#prefix__b)" transform="translate(5.97 5.943)" />
      <path
        d="M6.357 4.23a6.864 6.864 0 019.469 9.469l2.277 2.277c2.898-3.925 2.57-9.484-.985-13.039C13.564-.618 8.004-.946 4.08 1.953L6.357 4.23z"
        fill="url(#prefix__c)" transform="translate(5.97 5.943)" />
      <path
        d="M14.88 5.176a6.864 6.864 0 00-8.523-.946L5.216 3.089a8.495 8.495 0 00-2.127 2.127l1.14 1.141a6.864 6.864 0 009.47 9.47l1.143 1.142a8.497 8.497 0 002.127-2.127L15.826 13.7a6.864 6.864 0 00-.947-8.523z"
        fill="url(#prefix__d)" opacity=".2" transform="translate(5.97 5.943)" />
    </g>
    <rect stroke="url(#prefix__e)" stroke-width="1.333" x=".667" y=".667" width="30.667" height="30.667" rx="7.333" />
    <path
      d="M46.963 22.224c-.996 0-1.917-.174-2.763-.523a6.936 6.936 0 01-2.203-1.456 6.628 6.628 0 01-1.474-2.165A6.899 6.899 0 0140 15.392c0-.97.174-1.867.523-2.688a6.556 6.556 0 011.456-2.147 6.477 6.477 0 012.184-1.437c.846-.349 1.767-.523 2.762-.523.983 0 1.892.174 2.726.523.846.336 1.58.815 2.202 1.437a6.374 6.374 0 011.475 2.166c.348.82.523 1.717.523 2.688 0 .958-.175 1.854-.523 2.688a6.772 6.772 0 01-1.456 2.165 6.82 6.82 0 01-2.203 1.437 6.949 6.949 0 01-2.706.523zm-.038-2.67c.784 0 1.469-.174 2.054-.522a3.541 3.541 0 001.381-1.456c.324-.635.485-1.363.485-2.184 0-.622-.093-1.182-.28-1.68a3.667 3.667 0 00-.802-1.307 3.314 3.314 0 00-1.251-.84 4.052 4.052 0 00-1.587-.298c-.784 0-1.474.174-2.072.522a3.454 3.454 0 00-1.362 1.438c-.324.61-.486 1.331-.486 2.165 0 .622.094 1.188.28 1.699.187.51.448.952.784 1.325.349.36.766.64 1.251.84.485.199 1.02.299 1.605.299zM55.076 22V8.448h2.856V22zM59.57 22V8.448h2.856V22zM64.064 22v-9.072h2.856V22h-2.856zm1.437-10.323c-.448 0-.82-.15-1.12-.448a1.597 1.597 0 01-.429-1.12c0-.448.143-.821.43-1.12.298-.298.671-.448 1.12-.448.447 0 .815.15 1.1.448.287.299.43.672.43 1.12 0 .436-.143.81-.43 1.12-.285.299-.653.448-1.1.448zM72.926 22.205c-.933 0-1.78-.205-2.539-.616a4.793 4.793 0 01-1.773-1.717c-.436-.722-.653-1.53-.653-2.427 0-.896.217-1.698.653-2.408a4.696 4.696 0 011.773-1.68c.747-.423 1.593-.634 2.539-.634.946 0 1.792.205 2.539.616.746.41 1.337.976 1.773 1.698.436.71.653 1.512.653 2.408 0 .896-.218 1.705-.653 2.427a4.794 4.794 0 01-1.773 1.717c-.747.41-1.593.616-2.539.616zm0-2.594c.41 0 .772-.088 1.083-.262a1.83 1.83 0 00.709-.765c.174-.336.261-.716.261-1.139 0-.423-.087-.79-.261-1.101a1.83 1.83 0 00-.728-.747c-.299-.186-.653-.28-1.064-.28-.398 0-.753.094-1.064.28a1.83 1.83 0 00-.728.747 2.325 2.325 0 00-.261 1.12c0 .41.087.784.261 1.12.174.323.417.579.728.765a2.14 2.14 0 001.064.262z"
      fill="#0C111D" fill-rule="nonzero" />
  </g>
</svg>